<svg width="16" height="21" viewBox="0 0 16 21" fill="none" xmlns="http://www.w3.org/2000/svg">
<path d="M7.141 2.5C5.559 2.5 4.754 2.669 4.013 3.065C3.39502 3.39015 2.89015 3.89502 2.565 4.513C2.169 5.253 2 6.059 2 7.64V13.358C2 14.94 2.169 15.745 2.565 16.486C2.902 17.116 3.383 17.597 4.013 17.934C4.753 18.33 5.559 18.499 7.141 18.499H8.859C10.441 18.499 11.246 18.33 11.987 17.934C12.605 17.6089 13.1098 17.104 13.435 16.486C13.831 15.746 14 14.94 14 13.358V7.64C14 6.058 13.831 5.253 13.435 4.512C13.1098 3.89402 12.605 3.38915 11.987 3.064C11.247 2.669 10.441 2.5 8.86 2.5H7.14H7.141ZM7.141 0.5H8.859C10.873 0.5 11.953 0.778 12.931 1.301C13.8973 1.81249 14.6875 2.60269 15.199 3.569C15.722 4.547 16 5.627 16 7.641V13.359C16 15.373 15.722 16.453 15.199 17.431C14.6875 18.3973 13.8973 19.1875 12.931 19.699C11.953 20.222 10.873 20.5 8.859 20.5H7.14C5.126 20.5 4.046 20.222 3.068 19.699C2.10169 19.1875 1.31149 18.3973 0.8 17.431C0.278 16.453 0 15.373 0 13.359V7.64C0 5.626 0.278 4.546 0.801 3.568C1.31292 2.60192 2.10347 1.81206 3.07 1.301C4.047 0.778 5.127 0.5 7.141 0.5ZM7 4.5H9V9.5H7V4.5Z" fill="#B6BCCE"/>
</svg>
