<svg width="153" height="22" viewBox="0 0 153 22" fill="none" xmlns="http://www.w3.org/2000/svg">
<path d="M5.6754 21.6275C5.8109 21.6275 5.898 21.5004 5.9367 21.2461C5.9948 20.9918 5.9076 20.532 5.6754 19.867C5.598 19.6127 5.4238 19.1627 5.1528 18.5171C4.9012 17.8715 4.6012 17.1281 4.2529 16.287C3.9045 15.4458 3.5465 14.5949 3.1787 13.734C2.8303 12.8733 2.5109 12.081 2.2206 11.3572C1.9303 10.6334 1.70769 10.0857 1.55289 9.714C1.30119 9.0488 1.0304 8.5794 0.739998 8.3055C0.469098 8.0316 0.246496 7.8946 0.0722961 7.8946H5.9948C5.8786 7.8946 5.8013 8.0316 5.7625 8.3055C5.7238 8.5794 5.8013 9.0488 5.9948 9.714C6.0916 10.0661 6.2464 10.5845 6.4592 11.2692C6.6915 11.9539 6.9432 12.7265 7.2141 13.5874C7.5044 14.4481 7.79479 15.3284 8.08509 16.2283C8.39469 17.1281 8.67539 17.9595 8.92699 18.7225H8.956C9.169 17.94 9.4012 17.0988 9.6528 16.199C9.9044 15.2795 10.1464 14.3895 10.3786 13.5287C10.6108 12.6483 10.8141 11.8659 10.9883 11.1812C11.1818 10.4964 11.3173 9.9879 11.3947 9.6553C11.5689 8.9902 11.6367 8.5304 11.5979 8.2762C11.5592 8.0218 11.4915 7.8946 11.3947 7.8946H17.8398C17.7237 7.8946 17.6463 8.0316 17.6075 8.3055C17.5688 8.5794 17.6463 9.0488 17.8398 9.714C17.9366 10.0661 18.0818 10.5845 18.2753 11.2692C18.4688 11.9539 18.6817 12.7265 18.914 13.5874C19.1462 14.4481 19.3882 15.3284 19.6398 16.2283C19.8914 17.1281 20.114 17.9595 20.3075 18.7225H20.3366C20.6269 17.94 20.9269 17.0988 21.2365 16.199C21.5656 15.2795 21.885 14.3895 22.1946 13.5287C22.5042 12.6483 22.7752 11.8659 23.0075 11.1812C23.2398 10.4964 23.3946 9.9879 23.472 9.6553C23.6462 9.0293 23.714 8.5794 23.6752 8.3055C23.6365 8.0316 23.5688 7.8946 23.472 7.8946H29.2494C29.1139 7.8946 28.9202 8.0218 28.6687 8.2762C28.4172 8.5304 28.1559 8.9803 27.8848 9.626C27.7494 9.9781 27.5267 10.4964 27.2171 11.1812C26.9075 11.8659 26.5687 12.6288 26.201 13.4699C25.8333 14.3111 25.4655 15.1524 25.0978 15.9936C24.73 16.8347 24.401 17.5976 24.1107 18.2824C23.8397 18.9671 23.6462 19.4952 23.5301 19.867C23.3365 20.493 23.2591 20.9429 23.2978 21.2168C23.3365 21.4907 23.4139 21.6275 23.5301 21.6275H17.0559C17.172 21.6275 17.2495 21.4907 17.2882 21.2168C17.3269 20.9429 17.2495 20.493 17.0559 19.867C16.9979 19.6909 16.8817 19.2898 16.7076 18.6638C16.5527 18.0378 16.3591 17.2847 16.1269 16.4043C15.8947 15.5045 15.6527 14.5752 15.4012 13.6167C15.1496 12.6581 14.9076 11.7485 14.6753 10.8878H14.5883C14.356 11.7094 14.114 12.5897 13.8625 13.5287C13.6109 14.4481 13.3689 15.3479 13.1366 16.2283C12.9044 17.0891 12.6914 17.852 12.498 18.5171C12.3238 19.1627 12.2076 19.6127 12.1495 19.867C11.9754 20.5125 11.9075 20.9722 11.9463 21.2461C11.9851 21.5004 12.0528 21.6275 12.1495 21.6275H5.6754ZM35.6967 21.9209C33.6645 21.9209 32.0677 21.6373 30.9064 21.07C29.7645 20.5027 28.9613 19.6909 28.4968 18.6345C28.0323 17.5586 27.8 16.2772 27.8 14.7904C27.8 12.5798 28.4096 10.829 29.629 9.5379C30.8484 8.2468 32.7161 7.6012 35.2322 7.6012C36.7031 7.6012 37.8935 7.8066 38.8031 8.2174C39.7322 8.6283 40.4387 9.176 40.9224 9.8607C41.4063 10.5454 41.7353 11.3083 41.9095 12.1495C42.1031 12.9711 42.1998 13.8026 42.1998 14.6437V16.0229C42.1998 15.9642 41.9288 15.9056 41.387 15.8468C40.8644 15.7686 39.9741 15.7295 38.716 15.7295H31.9806C31.9806 16.8054 32.2999 17.6173 32.9387 18.165C33.5967 18.6932 34.6612 18.9573 36.1322 18.9573C37.3709 18.9573 38.4741 18.8106 39.4419 18.5171C40.4289 18.2041 41.145 17.9107 41.5902 17.6368V18.5171L41.8805 20.7472C41.5128 21.0015 40.8063 21.2656 39.7612 21.5395C38.716 21.7938 37.3613 21.9209 35.6967 21.9209ZM33.0548 13.2058H38.0773C38.0773 12.7756 37.9805 12.3549 37.787 11.9441C37.6129 11.5333 37.3225 11.2007 36.9161 10.9464C36.5096 10.6725 35.9483 10.5356 35.2322 10.5356C34.1678 10.5356 33.4032 10.7605 32.9387 11.2105C32.4742 11.6604 32.2419 12.1299 32.2419 12.619C32.2419 12.8146 32.2999 12.9613 32.4161 13.0592C32.5322 13.157 32.7452 13.2058 33.0548 13.2058ZM49.208 21.9209C47.8729 21.9209 46.9052 21.6373 46.3051 21.07C45.7051 20.4831 45.4051 19.5343 45.4051 18.2236V10.829H42.7922V7.8946C43.6827 7.8946 44.3794 7.7871 44.8825 7.5719C45.3858 7.3371 45.7439 6.9361 45.9567 6.3687C46.1696 5.8015 46.276 5.0092 46.276 3.9919H49.528V7.8946H54.492C54.357 8.2859 54.221 8.775 54.086 9.3619C53.97 9.9292 53.911 10.4182 53.911 10.829H49.528V16.6097C49.528 17.5096 49.595 18.1258 49.731 18.4584C49.866 18.7911 50.186 18.9573 50.689 18.9573C51.018 18.9573 51.376 18.8399 51.763 18.6052C52.17 18.3704 52.557 18.0868 52.924 17.7542C53.311 17.402 53.631 17.0694 53.882 16.7565V17.6661L54.173 20.5125C53.824 20.8254 53.215 21.1385 52.344 21.4515C51.473 21.7645 50.428 21.9209 49.208 21.9209ZM54.887 21.6275C55.023 21.6275 55.149 21.4907 55.265 21.2168C55.4 20.9429 55.468 20.493 55.468 19.867V9.9487C55.468 9.3227 55.4 8.8825 55.265 8.6283C55.149 8.3543 55.023 8.2077 54.887 8.1881C55.739 8.1881 56.61 8.1294 57.5 8.0121C58.391 7.8751 59.087 7.7382 59.591 7.6012V8.775L59.533 9.2738L59.591 9.3325C59.726 9.1173 59.939 8.8825 60.229 8.6283C60.539 8.3543 60.926 8.1196 61.391 7.924C61.875 7.7088 62.436 7.6012 63.074 7.6012C64.023 7.6012 64.865 7.7382 65.6 8.0121C66.336 8.2663 66.858 8.5304 67.168 8.8043L66.297 12.7364V13.6167C66.007 13.2058 65.61 12.7853 65.107 12.3549C64.623 11.9245 64.081 11.5626 63.481 11.2692C62.9 10.9758 62.3 10.829 61.681 10.829C60.984 10.829 60.462 11.0834 60.113 11.5919C59.765 12.1006 59.591 12.9026 59.591 13.9981V19.867C59.591 20.493 59.649 20.9429 59.765 21.2168C59.9 21.4907 60.036 21.6275 60.171 21.6275H54.887ZM72.598 21.9209C70.856 21.9209 69.462 21.5787 68.417 20.8939C67.391 20.1897 66.879 19.0648 66.879 17.5195C66.879 16.4436 67.149 15.5729 67.692 14.9078C68.233 14.2427 68.969 13.7536 69.898 13.4406C70.846 13.108 71.92 12.9417 73.12 12.9417C74.456 12.9417 75.501 13.0983 76.256 13.4113C77.011 13.7242 77.485 13.9395 77.679 14.0569C77.679 12.8439 77.466 11.9539 77.04 11.3865C76.614 10.8193 75.791 10.5356 74.572 10.5356C73.391 10.5356 72.346 10.653 71.437 10.8878C70.527 11.1224 69.782 11.3963 69.201 11.7094C68.64 12.0223 68.253 12.2864 68.04 12.5017V11.6213L67.75 8.7456C67.885 8.6674 68.243 8.5403 68.824 8.3642C69.404 8.1881 70.198 8.0218 71.204 7.8653C72.211 7.6892 73.411 7.6012 74.804 7.6012C76.72 7.6012 78.182 7.8848 79.188 8.4522C80.195 9 80.882 9.7922 81.249 10.829C81.636 11.8659 81.83 13.1179 81.83 14.5851V19.867C81.83 20.4147 81.888 20.8157 82.004 21.07C82.14 21.3048 82.275 21.4907 82.411 21.6275H77.708V21.0113L77.766 20.4538L77.708 20.3952C77.398 20.7277 76.808 21.07 75.937 21.4221C75.085 21.7548 73.972 21.9209 72.598 21.9209ZM73.962 18.9573C75.162 18.9573 76.082 18.8204 76.72 18.5465C77.379 18.253 77.708 17.8814 77.708 17.4314C77.708 16.9815 77.369 16.6097 76.691 16.3163C76.033 16.0229 75.133 15.8761 73.991 15.8761C72.888 15.8761 72.104 16.0327 71.64 16.3456C71.195 16.6586 70.972 17.0499 70.972 17.5195C70.972 18.1063 71.233 18.4975 71.756 18.6932C72.279 18.8693 73.014 18.9573 73.962 18.9573ZM83.638 21.6275C83.774 21.6275 83.899 21.4907 84.016 21.2168C84.151 20.9429 84.219 20.493 84.219 19.867V9.9487C84.219 9.3227 84.151 8.8825 84.016 8.6283C83.899 8.3543 83.774 8.2077 83.638 8.1881C84.49 8.1881 85.361 8.1294 86.251 8.0121C87.141 7.8751 87.838 7.7382 88.341 7.6012V9.3912L88.284 9.7726L88.341 9.8314C88.399 9.6944 88.583 9.4499 88.893 9.0978C89.203 8.7456 89.648 8.413 90.228 8.1001C90.809 7.7675 91.525 7.6012 92.376 7.6012C94.176 7.6012 95.551 8.1196 96.499 9.1564C97.467 10.1933 97.951 11.8169 97.951 14.0275V19.867C97.951 20.493 98.009 20.9429 98.125 21.2168C98.261 21.4907 98.396 21.6275 98.532 21.6275H93.248C93.383 21.6275 93.509 21.4907 93.625 21.2168C93.76 20.9429 93.828 20.493 93.828 19.867V14.1156C93.828 12.7265 93.616 11.7876 93.189 11.2985C92.764 10.7899 92.221 10.5356 91.564 10.5356C90.731 10.5356 89.987 10.8388 89.329 11.4453C88.671 12.0321 88.341 13.0103 88.341 14.3797V19.867C88.341 20.493 88.399 20.9429 88.516 21.2168C88.651 21.4907 88.787 21.6275 88.922 21.6275H83.638ZM107.03 21.9209C105.308 21.9209 103.855 21.8231 102.675 21.6275C101.495 21.432 100.682 21.2363 100.237 21.0407V20.1604L99.626 17.2847C100.13 17.6563 101.069 18.0281 102.443 18.3997C103.817 18.7713 105.501 18.9573 107.495 18.9573C108.404 18.9573 109.033 18.8693 109.382 18.6932C109.749 18.5171 109.933 18.2138 109.933 17.7835C109.933 17.4509 109.807 17.1966 109.555 17.0206C109.324 16.8445 108.897 16.7076 108.279 16.6097C107.659 16.4924 106.759 16.3555 105.578 16.199C104.088 16.0034 102.907 15.7295 102.037 15.3774C101.165 15.0057 100.547 14.5361 100.179 13.9688C99.83 13.3819 99.656 12.6679 99.656 11.8267C99.656 11.0442 99.84 10.34 100.208 9.714C100.594 9.0684 101.253 8.5598 102.181 8.1881C103.13 7.7968 104.446 7.6012 106.13 7.6012C107.717 7.6012 109.11 7.699 110.31 7.8946C111.51 8.0903 112.372 8.2859 112.894 8.4815V9.3619L113.475 11.9441C113.029 11.6506 112.159 11.3475 110.862 11.0344C109.566 10.7215 107.92 10.5649 105.927 10.5649C105.153 10.5649 104.601 10.6432 104.272 10.7997C103.943 10.9562 103.778 11.23 103.778 11.6213C103.778 11.8757 103.884 12.0908 104.098 12.2669C104.311 12.4234 104.727 12.5701 105.346 12.707C105.985 12.8439 106.933 13.0005 108.191 13.1765C109.836 13.3918 111.075 13.6949 111.907 14.0862C112.739 14.4578 113.301 14.9274 113.591 15.4947C113.881 16.0424 114.027 16.7076 114.027 17.4901C114.027 18.9964 113.465 20.1115 112.343 20.8352C111.22 21.559 109.449 21.9209 107.03 21.9209ZM115.724 21.6275C115.859 21.6275 115.985 21.4907 116.101 21.2168C116.236 20.9429 116.304 20.493 116.304 19.867V10.829H113.691V7.8946H116.595L116.623 7.836C116.566 7.7382 116.45 7.4154 116.275 6.8676C116.101 6.3003 116.014 5.6352 116.014 4.8723C116.014 3.3268 116.45 2.2117 117.321 1.527C118.211 0.8424 119.42 0.5 120.95 0.5C122.188 0.5 123.282 0.568499 124.23 0.705399C125.179 0.822799 125.866 0.949999 126.292 1.0869V1.9966L126.873 5.195C126.523 4.9407 126.068 4.6864 125.508 4.4321C124.965 4.1582 124.385 3.9332 123.766 3.7572C123.146 3.5616 122.527 3.4637 121.907 3.4637C121.288 3.4637 120.843 3.6105 120.572 3.9039C120.321 4.1973 120.195 4.6277 120.195 5.195V7.0144C120.195 7.4447 120.233 7.699 120.31 7.7773C120.388 7.8555 120.649 7.8946 121.094 7.8946H125.449C125.314 8.0707 125.179 8.413 125.042 8.9217C124.927 9.4107 124.869 10.0465 124.869 10.829H120.485V19.867C120.485 20.493 120.543 20.9429 120.659 21.2168C120.795 21.4907 120.93 21.6275 121.065 21.6275H115.724ZM132.582 21.9209C130.549 21.9209 128.952 21.6373 127.792 21.07C126.649 20.5027 125.846 19.6909 125.381 18.6345C124.918 17.5586 124.685 16.2772 124.685 14.7904C124.685 12.5798 125.294 10.829 126.514 9.5379C127.733 8.2468 129.601 7.6012 132.117 7.6012C133.588 7.6012 134.778 7.8066 135.688 8.2174C136.617 8.6283 137.324 9.176 137.807 9.8607C138.291 10.5454 138.62 11.3083 138.795 12.1495C138.988 12.9711 139.085 13.8026 139.085 14.6437V16.0229C139.085 15.9642 138.813 15.9056 138.272 15.8468C137.75 15.7686 136.859 15.7295 135.6 15.7295H128.866C128.866 16.8054 129.185 17.6173 129.823 18.165C130.481 18.6932 131.547 18.9573 133.017 18.9573C134.256 18.9573 135.359 18.8106 136.326 18.5171C137.314 18.2041 138.029 17.9107 138.476 17.6368V18.5171L138.766 20.7472C138.398 21.0015 137.692 21.2656 136.647 21.5395C135.601 21.7938 134.246 21.9209 132.582 21.9209ZM129.94 13.2058H134.962C134.962 12.7756 134.865 12.3549 134.672 11.9441C134.497 11.5333 134.207 11.2007 133.801 10.9464C133.394 10.6725 132.833 10.5356 132.117 10.5356C131.053 10.5356 130.288 10.7605 129.823 11.2105C129.359 11.6604 129.127 12.1299 129.127 12.619C129.127 12.8146 129.185 12.9613 129.301 13.0592C129.417 13.157 129.63 13.2058 129.94 13.2058ZM140.374 21.6275C140.51 21.6275 140.635 21.4907 140.751 21.2168C140.887 20.9429 140.954 20.493 140.954 19.867V9.9487C140.954 9.3227 140.887 8.8825 140.751 8.6283C140.635 8.3543 140.51 8.2077 140.374 8.1881C141.226 8.1881 142.096 8.1294 142.987 8.0121C143.878 7.8751 144.574 7.7382 145.077 7.6012V8.775L145.018 9.2738L145.077 9.3325C145.213 9.1173 145.425 8.8825 145.715 8.6283C146.026 8.3543 146.412 8.1196 146.877 7.924C147.361 7.7088 147.922 7.6012 148.56 7.6012C149.51 7.6012 150.351 7.7382 151.087 8.0121C151.822 8.2663 152.344 8.5304 152.654 8.8043L151.783 12.7364V13.6167C151.492 13.2058 151.096 12.7853 150.593 12.3549C150.11 11.9245 149.567 11.5626 148.967 11.2692C148.386 10.9758 147.787 10.829 147.167 10.829C146.47 10.829 145.948 11.0834 145.599 11.5919C145.25 12.1006 145.077 12.9026 145.077 13.9981V19.867C145.077 20.493 145.135 20.9429 145.25 21.2168C145.387 21.4907 145.522 21.6275 145.657 21.6275H140.374Z" fill="#67718E"/>
</svg>
